<svg width="56" height="56" viewBox="0 0 56 56" fill="none" xmlns="http://www.w3.org/2000/svg">
<path d="M26.8154 6.50781H18.091C10.916 6.50781 6.41736 11.5875 6.41736 18.7788V38.1781C6.41736 45.3695 10.895 50.4491 18.091 50.4491H38.6804C45.8787 50.4491 50.3564 45.3695 50.3564 38.1781V28.7795" stroke="#7D75D8" stroke-width="3.5" stroke-linecap="round" stroke-linejoin="round"/>
<path fill-rule="evenodd" clip-rule="evenodd" d="M20.5982 25.4825L38.0352 8.04547C40.2075 5.87547 43.7285 5.87547 45.9009 8.04547L48.7405 10.8851C50.9129 13.0575 50.9129 16.5808 48.7405 18.7508L31.2196 36.2718C30.2699 37.2215 28.9819 37.7558 27.6379 37.7558H18.8972L19.1166 28.9358C19.1492 27.6385 19.6789 26.4018 20.5982 25.4825Z" stroke="#7D75D8" stroke-width="3.5" stroke-linecap="round" stroke-linejoin="round"/>
<path d="M35.3855 10.7393L46.0395 21.3933" stroke="#7D75D8" stroke-width="3.5" stroke-linecap="round" stroke-linejoin="round"/>
</svg>
