<svg width="56" height="56" viewBox="0 0 56 56" fill="none" xmlns="http://www.w3.org/2000/svg">
<g id="Iconly/Light/Edit">
<g id="Edit">
<path id="Stroke 1" d="M32.0763 47.6998H48.999" stroke="#7D75D8" stroke-width="3.5" stroke-linecap="round" stroke-linejoin="round"/>
<path id="Stroke 3" fill-rule="evenodd" clip-rule="evenodd" d="M29.82 8.85452C31.6298 6.6915 34.8833 6.37433 37.0912 8.14738C37.2133 8.24357 41.1355 11.2905 41.1355 11.2905C43.5609 12.7568 44.3146 15.8739 42.8153 18.2527C42.7356 18.3801 20.5612 46.1171 20.5612 46.1171C19.8235 47.0374 18.7036 47.5808 17.5068 47.5938L9.0149 47.7004L7.10157 39.6021C6.83355 38.4634 7.10157 37.2675 7.8393 36.3471L29.82 8.85452Z" stroke="#7D75D8" stroke-width="3.5" stroke-linecap="round" stroke-linejoin="round"/>
<path id="Stroke 5 (Stroke)" fill-rule="evenodd" clip-rule="evenodd" d="M24.3269 12.9362C24.9155 12.1696 26.0142 12.0254 26.7807 12.6141L39.5026 22.3841C40.2691 22.9727 40.4133 24.0713 39.8247 24.8379C39.236 25.6044 38.1374 25.7486 37.3708 25.1599L24.6489 15.39C23.8824 14.8013 23.7382 13.7027 24.3269 12.9362Z" fill="#7D75D8"/>
</g>
</g>
</svg>
